<?xml version="1.0" encoding="UTF-8"?>
<svg version="1.1" xmlns="http://www.w3.org/2000/svg" width="200" height="200">
<path d="M0 0 C4.8858576 1.97167646 9.33756595 4.54601206 13.8984375 7.171875 C14.90430908 7.74607178 15.91018066 8.32026855 16.9465332 8.91186523 C20.14326915 10.74094209 23.3342856 12.57960971 26.5234375 14.421875 C28.05605225 15.30673584 28.05605225 15.30673584 29.61962891 16.20947266 C40.44693638 22.47207193 51.2281886 28.81105367 61.9609375 35.234375 C62.81389404 35.74427979 63.66685059 36.25418457 64.5456543 36.77954102 C65.32078369 37.24545654 66.09591309 37.71137207 66.89453125 38.19140625 C67.57443115 38.59979736 68.25433105 39.00818848 68.95483398 39.42895508 C70.5234375 40.421875 70.5234375 40.421875 71.5234375 41.421875 C71.66638578 44.00612655 71.74447801 46.56459615 71.77978516 49.15112305 C71.79438782 49.96093124 71.80899048 50.77073944 71.82403564 51.60508728 C71.95014686 59.08603642 72.01879787 66.56806319 72.07187843 74.04985332 C72.10764833 79.07918919 72.16095662 84.10692655 72.25732422 89.13549805 C72.35014703 93.99327864 72.39879937 98.84964429 72.41627121 103.70826149 C72.43036849 105.55956078 72.46001583 107.41081005 72.50557327 109.2616024 C72.84436276 123.73385369 72.84436276 123.73385369 69.65888977 127.80459595 C67.3303312 129.38947237 65.15162862 130.42737633 62.5234375 131.421875 C61.5243335 132.02773437 60.52522949 132.63359375 59.49584961 133.2578125 C58.60647705 133.76570312 57.71710449 134.27359375 56.80078125 134.796875 C55.77936035 135.38275391 54.75793945 135.96863281 53.70556641 136.57226562 C52.63483887 137.18263672 51.56411133 137.79300781 50.4609375 138.421875 C48.74071702 139.4082298 47.02050253 140.3945953 45.30072021 141.38171387 C44.12662784 142.05561737 42.95235133 142.72920018 41.77789307 143.40246582 C35.71708616 146.87866798 29.68107179 150.3970388 23.6484375 153.921875 C22.70605225 154.47230469 21.76366699 155.02273437 20.79272461 155.58984375 C19.88143799 156.12222656 18.97015137 156.65460938 18.03125 157.203125 C17.13696289 157.72003906 16.24267578 158.23695313 15.32128906 158.76953125 C13.31871663 159.9522023 11.33842906 161.17293151 9.37402344 162.41796875 C8.32762695 163.06894531 7.28123047 163.71992188 6.203125 164.390625 C5.25937012 164.99326172 4.31561523 165.59589844 3.34326172 166.21679688 C-0.17931105 167.72220114 -1.82797054 167.49604047 -5.4765625 166.421875 C-8.22363281 165.07763672 -8.22363281 165.07763672 -11.0546875 163.3515625 C-12.65328613 162.38875366 -12.65328613 162.38875366 -14.28417969 161.40649414 C-14.84472046 161.06296906 -15.40526123 160.71944397 -15.98278809 160.36550903 C-18.36473129 158.90578721 -20.7588671 157.46664131 -23.15264893 156.02644348 C-24.39605738 155.27826095 -25.63884957 154.52905333 -26.88104248 153.77885437 C-33.27698896 149.92145321 -39.74635558 146.19823908 -46.2265625 142.484375 C-53.35911649 138.38546356 -60.48287067 134.27623442 -67.5390625 130.046875 C-68.45026855 129.50172241 -68.45026855 129.50172241 -69.37988281 128.94555664 C-73.34590278 126.55253472 -73.34590278 126.55253472 -74.4765625 125.421875 C-74.61951078 122.83762345 -74.69760301 120.27915385 -74.73291016 117.69262695 C-74.74751282 116.88281876 -74.76211548 116.07301056 -74.77716064 115.23866272 C-74.90327186 107.75771358 -74.97192287 100.27568681 -75.02500343 92.79389668 C-75.06077333 87.76456081 -75.11408162 82.73682345 -75.21044922 77.70825195 C-75.30327203 72.85047136 -75.35192437 67.99410571 -75.36939621 63.13548851 C-75.38349349 61.28418922 -75.41314083 59.43293995 -75.45869827 57.5821476 C-75.7982945 43.0754346 -75.7982945 43.0754346 -72.53511047 38.99301147 C-70.21504303 37.41858654 -68.09630144 36.39608511 -65.4765625 35.421875 C-64.28637827 34.75500924 -63.10510321 34.07145493 -61.94140625 33.359375 C-60.76728745 32.71052425 -59.59142908 32.06481371 -58.4140625 31.421875 C-51.48258959 27.57908996 -44.62782821 23.61461812 -37.7890625 19.609375 C-29.74836174 14.90407604 -21.69110396 10.23026281 -13.6015625 5.609375 C-12.70993408 5.09979248 -11.81830566 4.59020996 -10.8996582 4.06518555 C-2.67512342 -0.62447676 -2.67512342 -0.62447676 0 0 Z M-4.95263672 46.32470703 C-6.22905029 47.11917236 -6.22905029 47.11917236 -7.53125 47.9296875 C-8.47613281 48.50460938 -9.42101562 49.07953125 -10.39453125 49.671875 C-11.37035156 50.290625 -12.34617187 50.909375 -13.3515625 51.546875 C-15.28636703 52.73712759 -17.22126088 53.92723501 -19.15625 55.1171875 C-20.06729492 55.68598633 -20.97833984 56.25478516 -21.91699219 56.84082031 C-25.06119501 58.78300436 -28.25221033 60.61659704 -31.4765625 62.421875 C-26.88995992 67.35620322 -21.31471937 70.30701629 -15.5390625 73.671875 C-14.45431641 74.3215625 -13.36957031 74.97125 -12.25195312 75.640625 C-11.20330078 76.25421875 -10.15464844 76.8678125 -9.07421875 77.5 C-7.64348022 78.34159668 -7.64348022 78.34159668 -6.18383789 79.20019531 C-3.20974706 80.5422776 -1.69014524 80.91385165 1.5234375 80.421875 C4.44801008 79.07631849 4.44801008 79.07631849 7.41015625 77.17578125 C8.51294922 76.50353516 9.61574219 75.83128906 10.75195312 75.13867188 C11.90514696 74.4208926 13.05813959 73.70278998 14.2109375 72.984375 C15.37501813 72.26915116 16.53972604 71.5549472 17.70507812 70.84179688 C19.8335569 69.53724536 21.95910668 68.22789495 24.08081055 66.91235352 C26.5234375 65.421875 26.5234375 65.421875 28.5234375 64.421875 C27.20997501 60.48148754 25.72454835 60.12076613 22.1328125 58.13671875 C20.47958984 57.21729492 20.47958984 57.21729492 18.79296875 56.27929688 C18.21498535 55.96404053 17.63700195 55.64878418 17.04150391 55.32397461 C15.28937507 54.36807002 13.5450227 53.39795642 11.80078125 52.42773438 C8.72222132 50.72717944 5.65084179 49.03090573 2.5234375 47.421875 C1.68055176 46.97513428 0.83766602 46.52839355 -0.03076172 46.06811523 C-2.50513135 45.1652322 -2.50513135 45.1652322 -4.95263672 46.32470703 Z M-35.4765625 68.421875 C-38.16323023 88.24355116 -38.16323023 88.24355116 -34.00146484 106.99560547 C-30.20213246 110.61219261 -25.66889892 112.22291811 -20.70458984 113.68896484 C-17.2863184 114.8134061 -14.57118337 116.61532906 -11.5390625 118.546875 C-8.21621199 120.7321328 -8.21621199 120.7321328 -4.4765625 121.421875 C-4.4765625 109.541875 -4.4765625 97.661875 -4.4765625 85.421875 C-8.8490625 82.988125 -13.2215625 80.554375 -17.7265625 78.046875 C-19.09973633 77.28197754 -20.47291016 76.51708008 -21.88769531 75.72900391 C-22.97405273 75.12491699 -24.06041016 74.52083008 -25.1796875 73.8984375 C-26.28989258 73.28049316 -27.40009766 72.66254883 -28.54394531 72.02587891 C-30.83505309 70.77275053 -33.12959857 69.56539572 -35.4765625 68.421875 Z M21.04150391 74.18359375 C19.29731619 75.15852773 17.54907157 76.12619225 15.80078125 77.09375 C14.69347656 77.7125 13.58617188 78.33125 12.4453125 78.96875 C10.92309082 79.81711426 10.92309082 79.81711426 9.37011719 80.68261719 C8.43071289 81.25657227 7.49130859 81.83052734 6.5234375 82.421875 C5.11783569 83.26975586 5.11783569 83.26975586 3.68383789 84.13476562 C1.13742469 86.83052773 0.95498671 88.5609256 0.95695496 92.21136475 C0.98276138 92.95630188 1.00856781 93.70123901 1.03515625 94.46875 C1.04223099 95.23995178 1.04930573 96.01115356 1.05659485 96.8057251 C1.08452172 99.26210712 1.14725011 101.71618551 1.2109375 104.171875 C1.23602289 105.83981076 1.25883565 107.50778236 1.27929688 109.17578125 C1.33434188 113.25869627 1.42059693 117.33989549 1.5234375 121.421875 C18.07559747 114.01351199 18.07559747 114.01351199 32.5234375 103.421875 C32.69854136 100.76895743 32.75499233 98.22201326 32.71875 95.5703125 C32.71450516 94.40926498 32.71450516 94.40926498 32.71017456 93.22476196 C32.69896504 90.74864343 32.67385953 88.2728845 32.6484375 85.796875 C32.63840868 84.11979688 32.62928266 82.44271311 32.62109375 80.765625 C32.59902324 76.65090277 32.56448852 72.53644989 32.5234375 68.421875 C28.88080891 68.421875 24.17811484 72.42772122 21.04150391 74.18359375 Z " fill="#3A5F7E" transform="translate(101.4765625,16.578125)"/>
<path d="M0 0 C0.99 0.495 0.99 0.495 2 1 C1.67 15.19 1.34 29.38 1 44 C2.32 43.67 3.64 43.34 5 43 C5.99 45.97 5.99 45.97 7 49 C6.07316406 48.54367188 5.14632812 48.08734375 4.19140625 47.6171875 C0.2807981 46.5054926 -1.79785488 47.5762885 -5.28515625 49.5078125 C-7.2251055 50.69061136 -9.15063948 51.89731699 -11.0625 53.125 C-12.02994141 53.72054687 -12.99738281 54.31609375 -13.99414062 54.9296875 C-18.72639601 57.85779076 -23.39391803 60.87749587 -28 64 C-27.01 64.99 -26.02 65.98 -25 67 C-25.99 67.33 -26.98 67.66 -28 68 C-28.99 67.505 -28.99 67.505 -30 67 C-30 66.01 -30 65.02 -30 64 C-30.70511719 63.73445313 -31.41023438 63.46890625 -32.13671875 63.1953125 C-35.15567786 61.93501033 -37.95185076 60.46042006 -40.8125 58.875 C-41.78832031 58.33617187 -42.76414062 57.79734375 -43.76953125 57.2421875 C-44.50558594 56.83226562 -45.24164063 56.42234375 -46 56 C-46 55.34 -46 54.68 -46 54 C-46.886875 53.896875 -47.77375 53.79375 -48.6875 53.6875 C-52.0826755 52.98284093 -54.21942098 52.0445434 -57 50 C-57 49.34 -57 48.68 -57 48 C-58.0209375 47.9071875 -58.0209375 47.9071875 -59.0625 47.8125 C-62.4994644 46.86185027 -64.6433787 45.29640294 -67.44921875 43.15625 C-69.01041262 41.92141736 -69.01041262 41.92141736 -71 41 C-53.79329384 30.72388744 -36.49653017 20.6278322 -19.06201172 10.74316406 C-16.28482004 9.1621444 -13.51736293 7.56580377 -10.75390625 5.9609375 C-9.99875732 5.52579834 -9.2436084 5.09065918 -8.46557617 4.64233398 C-7.11974821 3.86671084 -5.77717077 3.08540564 -4.4387207 2.29711914 C-2.99269705 1.46979828 -1.50031799 0.7242169 0 0 Z " fill="#47718E" transform="translate(99,16)"/>
<path d="M0 0 C1.32 0.33 2.64 0.66 4 1 C3.34 2.65 2.68 4.3 2 6 C2.99 6.99 2.99 6.99 4 8 C3.26362305 8.40839111 2.52724609 8.81678223 1.76855469 9.23754883 C-0.976091 10.76155857 -3.71924289 12.28821438 -6.46142578 13.81665039 C-7.6460595 14.47623556 -8.83127408 15.13477865 -10.01708984 15.79223633 C-11.72647893 16.74022247 -13.43357785 17.69233443 -15.140625 18.64453125 C-16.16704102 19.21534424 -17.19345703 19.78615723 -18.25097656 20.37426758 C-19.1581543 20.91075928 -20.06533203 21.44725098 -21 22 C-21.77279297 22.40476562 -22.54558594 22.80953125 -23.34179688 23.2265625 C-25.95354449 26.01980965 -25.49313542 29.11457608 -25.390625 32.73046875 C-25.38213531 33.85609978 -25.38213531 33.85609978 -25.37347412 35.00447083 C-25.35109668 37.39946504 -25.30090171 39.79295869 -25.25 42.1875 C-25.22993659 43.81182734 -25.21168553 45.43617815 -25.1953125 47.06054688 C-25.15122794 51.04094207 -25.08219427 55.02021671 -25 59 C-24.01 59.495 -24.01 59.495 -23 60 C-24.98 60.495 -24.98 60.495 -27 61 C-27 48 -27 35 -27 22 C-27.66 22 -28.32 22 -29 22 C-29 22.66 -29 23.32 -29 24 C-29.66 24 -30.32 24 -31 24 C-31 36.21 -31 48.42 -31 61 C-32.32 61 -33.64 61 -35 61 C-34.67 60.34 -34.34 59.68 -34 59 C-33.34 59.33 -32.68 59.66 -32 60 C-32 48.12 -32 36.24 -32 24 C-33.98 23.34 -35.96 22.68 -38 22 C-39.97314421 20.96549389 -41.91829715 19.87627588 -43.8359375 18.7421875 C-45.43115234 17.80439453 -45.43115234 17.80439453 -47.05859375 16.84765625 C-48.15300781 16.19667969 -49.24742188 15.54570313 -50.375 14.875 C-51.49261719 14.21628906 -52.61023438 13.55757812 -53.76171875 12.87890625 C-56.51083725 11.25763124 -59.25676282 9.63119987 -62 8 C-60.68 7.67 -59.36 7.34 -58 7 C-58 7.66 -58 8.32 -58 9 C-57.01 8.67 -56.02 8.34 -55 8 C-55 7.01 -55 6.02 -55 5 C-51.62837682 6.27140144 -48.60531623 7.72557667 -45.53125 9.6015625 C-44.71269531 10.09140625 -43.89414063 10.58125 -43.05078125 11.0859375 C-41.34679505 12.11407006 -39.64626923 13.14795913 -37.94921875 14.1875 C-37.13066406 14.67476562 -36.31210938 15.16203125 -35.46875 15.6640625 C-34.73076172 16.11217285 -33.99277344 16.5602832 -33.23242188 17.02197266 C-30.51240647 18.21361545 -28.9479432 18.39980593 -26 18 C-23.07480757 16.63802326 -23.07480757 16.63802326 -20.11328125 14.71875 C-19.01048828 14.04199219 -17.90769531 13.36523438 -16.77148438 12.66796875 C-15.61808043 11.94596571 -14.46509004 11.22330163 -13.3125 10.5 C-11.04132824 9.08782337 -8.76552899 7.68366063 -6.48828125 6.28125 C-5.48321533 5.65283203 -4.47814941 5.02441406 -3.44262695 4.37695312 C-1 3 -1 3 1 3 C0.505 1.515 0.505 1.515 0 0 Z " fill="#8399AA" transform="translate(129,78)"/>
<path d="M0 0 C0.66 0.33 1.32 0.66 2 1 C1.67 1.99 1.34 2.98 1 4 C0.95039269 6.92664753 0.95653924 9.82890339 1.0078125 12.75390625 C1.02532193 14.51236409 1.04223087 16.27082799 1.05859375 18.02929688 C1.08962866 20.8034734 1.12524699 23.57734954 1.17138672 26.35131836 C1.21357916 29.02722004 1.23711983 31.70276387 1.2578125 34.37890625 C1.27643341 35.21224991 1.29505432 36.04559357 1.3142395 36.90419006 C1.32470703 39.24047852 1.32470703 39.24047852 1 43 C0.01 43.66 -0.98 44.32 -2 45 C-1.67 43.68 -1.34 42.36 -1 41 C-1.99 41 -2.98 41 -4 41 C-4 28.79 -4 16.58 -4 4 C-3.34 4 -2.68 4 -2 4 C-2 3.34 -2 2.68 -2 2 C-1.34 2 -0.68 2 0 2 C0 1.34 0 0.68 0 0 Z " fill="#395A76" transform="translate(102,98)"/>
<path d="M0 0 C4.6393176 1.63952583 8.63855858 4.06871052 12.8125 6.625 C13.50537109 7.04523438 14.19824219 7.46546875 14.91210938 7.8984375 C16.61010748 8.9289467 18.30533614 9.96401681 20 11 C19.01 11.495 19.01 11.495 18 12 C18.33 13.65 18.66 15.3 19 17 C15.444218 15.65788025 12.20894833 14.07755303 8.91796875 12.1796875 C7.98662109 11.64472656 7.05527344 11.10976562 6.09570312 10.55859375 C5.13599609 10.00300781 4.17628906 9.44742188 3.1875 8.875 C2.20845703 8.31167969 1.22941406 7.74835938 0.22070312 7.16796875 C-2.18789555 5.78155585 -4.59471395 4.39214945 -7 3 C-5.68 2.67 -4.36 2.34 -3 2 C-3 2.66 -3 3.32 -3 4 C-2.01 3.67 -1.02 3.34 0 3 C0 2.01 0 1.02 0 0 Z " fill="#798FA2" transform="translate(74,83)"/>
<path d="M0 0 C1.32 0.33 2.64 0.66 4 1 C3.34 2.65 2.68 4.3 2 6 C2.66 6.66 3.32 7.32 4 8 C1.71125827 9.33858524 -0.58069656 10.67101014 -2.875 12 C-3.52597656 12.3815625 -4.17695312 12.763125 -4.84765625 13.15625 C-9.7734375 16 -9.7734375 16 -12 16 C-12 15.34 -12 14.68 -12 14 C-11.34 14 -10.68 14 -10 14 C-10 13.34 -10 12.68 -10 12 C-11.98 12.33 -13.96 12.66 -16 13 C-13.38772848 10.04185281 -10.33429693 8.28123892 -6.9375 6.3125 C-5.87402344 5.68988281 -4.81054688 5.06726563 -3.71484375 4.42578125 C-1 3 -1 3 1 3 C0.67 2.01 0.34 1.02 0 0 Z " fill="#758C9F" transform="translate(129,78)"/>
<path d="M0 0 C2.97 0.495 2.97 0.495 6 1 C6 1.66 6 2.32 6 3 C7.32 3 8.64 3 10 3 C10 3.66 10 4.32 10 5 C9.34 5 8.68 5 8 5 C8 5.66 8 6.32 8 7 C7.34 7 6.68 7 6 7 C6 19.21 6 31.42 6 44 C4.68 44 3.36 44 2 44 C2.33 43.34 2.66 42.68 3 42 C3.66 42.33 4.32 42.66 5 43 C5 31.12 5 19.24 5 7 C3.68 6.34 2.36 5.68 1 5 C0.25 2.375 0.25 2.375 0 0 Z " fill="#859BAC" transform="translate(92,95)"/>
<path d="M0 0 C3.37503669 1.1858237 5.64722731 2.27573689 8 5 C7.34 6.32 6.68 7.64 6 9 C6.99 9 7.98 9 9 9 C9 9.66 9 10.32 9 11 C3.03347646 9.42986223 -1.82909025 6.24970218 -7 3 C-5.68 2.67 -4.36 2.34 -3 2 C-3 2.66 -3 3.32 -3 4 C-2.01 3.67 -1.02 3.34 0 3 C0 2.01 0 1.02 0 0 Z " fill="#8196A9" transform="translate(74,83)"/>
<path d="M0 0 C-1.85986955 5.57960866 -8.34445219 8.04487626 -13.25 10.875 C-16.07680493 12.0314202 -17.97984721 12.26648407 -21 12 C-17.15651589 8.74951058 -13.17601471 6.21217131 -8.8125 3.75 C-8.18408203 3.38648438 -7.55566406 3.02296875 -6.90820312 2.6484375 C-2.25352444 0 -2.25352444 0 0 0 Z " fill="#6B889A" transform="translate(97,18)"/>
<path d="M0 0 C-1.51602308 4.24486463 -4.16089161 5.82691978 -8 8 C-11.75 9.3125 -11.75 9.3125 -15 10 C-15.66 9.67 -16.32 9.34 -17 9 C-14.54481265 7.49462965 -12.0861548 5.99555574 -9.625 4.5 C-8.92632812 4.07074219 -8.22765625 3.64148437 -7.5078125 3.19921875 C-2.2265625 0 -2.2265625 0 0 0 Z " fill="#7A95A6" transform="translate(76,30)"/>
<path d="M0 0 C1.32 0.33 2.64 0.66 4 1 C3.34 2.65 2.68 4.3 2 6 C2.66 6.66 3.32 7.32 4 8 C0.6875 8.6875 0.6875 8.6875 -3 9 C-4.9375 7.5625 -4.9375 7.5625 -6 6 C-1.25 3 -1.25 3 1 3 C0.67 2.01 0.34 1.02 0 0 Z " fill="#6A7F98" transform="translate(129,78)"/>
<path d="M0 0 C0 0.66 0 1.32 0 2 C-0.99 2.33 -1.98 2.66 -3 3 C-3.33 3.99 -3.66 4.98 -4 6 C-4.7425 6.103125 -5.485 6.20625 -6.25 6.3125 C-9.03807548 6.8117379 -9.03807548 6.8117379 -11 8.5625 C-13.48908319 10.35152855 -15.00256744 10.24978605 -18 10 C-13.67630171 6.12358085 -6.04191557 0 0 0 Z " fill="#91A3B3" transform="translate(124,127)"/>
<path d="M0 0 C0 1.65 0 3.3 0 5 C-1.65 5.66 -3.3 6.32 -5 7 C-5 6.01 -5 5.02 -5 4 C-6.65 3.67 -8.3 3.34 -10 3 C-10 2.67 -10 2.34 -10 2 C-6.38026598 0.68373308 -3.90432869 0 0 0 Z " fill="#678093" transform="translate(108,95)"/>
<path d="M0 0 C0.625 1.875 0.625 1.875 1 4 C0.34 4.66 -0.32 5.32 -1 6 C-1.66 5.67 -2.32 5.34 -3 5 C-3 4.34 -3 3.68 -3 3 C-3.99 3 -4.98 3 -6 3 C-6.33 2.01 -6.66 1.02 -7 0 C-4.3333581 -1.33332095 -2.83319697 -0.67102033 0 0 Z " fill="#4C6983" transform="translate(86,89)"/>
<path d="M0 0 C3.08375495 1.02791832 3.87790925 1.70106836 6 4 C6.556875 4.556875 7.11375 5.11375 7.6875 5.6875 C8.3371875 6.3371875 8.3371875 6.3371875 9 7 C8.01 7.495 8.01 7.495 7 8 C4.6171875 6.78515625 4.6171875 6.78515625 1.875 5.0625 C0.96492188 4.49660156 0.05484375 3.93070312 -0.8828125 3.34765625 C-1.58148438 2.90292969 -2.28015625 2.45820312 -3 2 C-2.01 1.34 -1.02 0.68 0 0 Z " fill="#8298A8" transform="translate(120,70)"/>
<path d="M0 0 C3.52819467 -0.40322225 4.74276145 -0.18545105 7.6875 1.9375 C8.450625 2.618125 9.21375 3.29875 10 4 C10.66 4.33 11.32 4.66 12 5 C12 5.66 12 6.32 12 7 C7.39104317 5.68315519 3.85859765 3.84801255 0 1 C0 0.67 0 0.34 0 0 Z " fill="#7C91A2" transform="translate(83,174)"/>
<path d="M0 0 C-3.5087188 3.09592835 -6.49197399 4.74194623 -11 6 C-10.6875 4.0625 -10.6875 4.0625 -10 2 C-9.01 1.67 -8.02 1.34 -7 1 C-6.34 0.62875 -5.68 0.2575 -5 -0.125 C-3 -1 -3 -1 0 0 Z " fill="#6D8499" transform="translate(147,157)"/>
<path d="M0 0 C1.32 0 2.64 0 4 0 C4 0.66 4 1.32 4 2 C7.465 1.505 7.465 1.505 11 1 C11 2.32 11 3.64 11 5 C6.12637153 4.54663921 3.60957611 3.2910841 0 0 Z " fill="#75899B" transform="translate(67,85)"/>
<path d="M0 0 C-1 3 -1 3 -3.1875 4.625 C-6.17152633 6.08385732 -8.71554694 6.61808685 -12 7 C-9.20232475 3.70861735 -4.40323273 0 0 0 Z " fill="#819BAC" transform="translate(97,18)"/>
<path d="M0 0 C4.30764815 1.56641751 8.06171464 3.68336156 12 6 C9.92446352 6.5534764 8.15634036 7 6 7 C4.64567325 5.68799596 3.31266518 4.35368596 2 3 C1.34 2.67 0.68 2.34 0 2 C0 1.34 0 0.68 0 0 Z " fill="#73899A" transform="translate(155,48)"/>
<path d="M0 0 C1.65 0 3.3 0 5 0 C5.66 1.98 6.32 3.96 7 6 C2.545 5.01 2.545 5.01 -2 4 C-1.34 2.68 -0.68 1.36 0 0 Z " fill="#8198A9" transform="translate(99,59)"/>
<path d="M0 0 C1.32 0 2.64 0 4 0 C4 0.66 4 1.32 4 2 C5.65 2 7.3 2 9 2 C9.33 3.32 9.66 4.64 10 6 C6.40992874 4.66654496 3.20429093 3.1056769 0 1 C0 0.67 0 0.34 0 0 Z " fill="#74889A" transform="translate(66,164)"/>
<path d="M0 0 C1.32 0.66 2.64 1.32 4 2 C0.9868694 4.21553721 -0.45160985 5.03163789 -4.25 4.8125 C-5.1575 4.544375 -6.065 4.27625 -7 4 C-7.33 3.34 -7.66 2.68 -8 2 C-5.69 2 -3.38 2 -1 2 C-0.67 1.34 -0.34 0.68 0 0 Z " fill="#899AA7" transform="translate(103,179)"/>
<path d="M0 0 C-1.98 1.32 -3.96 2.64 -6 4 C-6.66 3.67 -7.32 3.34 -8 3 C-8 2.01 -8 1.02 -8 0 C-4.94736336 -0.98120464 -3.05263664 -0.98120464 0 0 Z " fill="#99AEBB" transform="translate(92,67)"/>
<path d="M0 0 C3.45925163 1.2491742 6.14693203 2.67527795 9 5 C6 6 6 6 3.375 5.3125 C1 4 1 4 0.1875 1.875 C0.125625 1.25625 0.06375 0.6375 0 0 Z " fill="#7F94A4" transform="translate(133,35)"/>
<path d="M0 0 C0.66 0.33 1.32 0.66 2 1 C1.67 2.98 1.34 4.96 1 7 C0.34 7 -0.32 7 -1 7 C-1 6.34 -1 5.68 -1 5 C-1.66 4.67 -2.32 4.34 -3 4 C-2.67 3.01 -2.34 2.02 -2 1 C-1.34 0.67 -0.68 0.34 0 0 Z " fill="#5B7B95" transform="translate(99,16)"/>
<path d="M0 0 C1.65 0.33 3.3 0.66 5 1 C0.25 5 0.25 5 -2 5 C-2 4.34 -2 3.68 -2 3 C-1.34 3 -0.68 3 0 3 C0 2.01 0 1.02 0 0 Z " fill="#698499" transform="translate(119,89)"/>
<path d="M0 0 C1.32 0.33 2.64 0.66 4 1 C3.1875 2.9375 3.1875 2.9375 2 5 C1.01 5.33 0.02 5.66 -1 6 C-1.66 5.34 -2.32 4.68 -3 4 C-1.68 3.67 -0.36 3.34 1 3 C0.67 2.01 0.34 1.02 0 0 Z " fill="#92A7B4" transform="translate(129,78)"/>
<path d="M0 0 C0 0.66 0 1.32 0 2 C-0.99 2.33 -1.98 2.66 -3 3 C-3.33 3.99 -3.66 4.98 -4 6 C-4.99 6 -5.98 6 -7 6 C-7 5.01 -7 4.02 -7 3 C-2.77777778 0 -2.77777778 0 0 0 Z " fill="#788FA0" transform="translate(124,127)"/>
<path d="M0 0 C-4.75 4 -4.75 4 -7 4 C-7 3.01 -7 2.02 -7 1 C-3.375 -1.125 -3.375 -1.125 0 0 Z " fill="#95ABB9" transform="translate(77,75)"/>
<path d="M0 0 C0 0.66 0 1.32 0 2 C-2.5 3.625 -2.5 3.625 -5 5 C-5.66 4.34 -6.32 3.68 -7 3 C-2.25 0 -2.25 0 0 0 Z " fill="#6C8B9F" transform="translate(42,50)"/>
</svg>
